<?xml version="1.0" encoding="utf-8"?>
<!-- Generator: Adobe Illustrator 24.1.2, SVG Export Plug-In . SVG Version: 6.00 Build 0)  -->
<svg version="1.1" id="_x32_" xmlns="http://www.w3.org/2000/svg" xmlns:xlink="http://www.w3.org/1999/xlink" x="0px" y="0px"
	 viewBox="0 0 512 512" style="enable-background:new 0 0 512 512;" xml:space="preserve">
<style type="text/css">
	.st0{fill:#F6FF52;}
	.st1{fill:#E9B5C4;}
	.st2{fill:#A5D3A6;}
	.st3{fill:#FBDE7D;}
	.st4{fill:#83CBAE;}
	.st5{fill:#FBDE97;}
	.st6{fill:#83CBBC;}
	.st7{fill:#D1D39A;}
	.st8{fill:#C7B5C4;}
</style>
<g>
	<path class="st0" d="M256,222.1c-18.7,0-33.9,15.2-33.9,33.9c0,18.7,15.2,33.9,33.9,33.9c18.7,0,33.9-15.2,33.9-33.9
		C289.9,237.3,274.7,222.1,256,222.1z"/>
	<path class="st1" d="M237.4,196c2.1,8.4,9.6,14.6,18.6,14.6c9,0,16.6-6.2,18.6-14.6L312,72.6c1.2-4.7,1.9-9.6,1.9-14.7
		C313.9,25.9,288,0,256,0s-57.9,25.9-57.9,57.9c0,5.1,0.7,10,1.9,14.7L237.4,196z"/>
	<path class="st2" d="M274.7,315.9c-2.1-8.4-9.6-14.6-18.6-14.6c-9,0-16.6,6.2-18.6,14.6L200,439.4c-1.2,4.7-1.9,9.6-1.9,14.7
		c0,32,25.9,57.9,57.9,57.9s57.9-25.9,57.9-57.9c0-5.1-0.7-10-1.9-14.7L274.7,315.9z"/>
	<path class="st3" d="M86.7,165.9l113.7,60.9c7.4,4.5,17.2,3.6,23.6-2.8c6.4-6.4,7.3-16.1,2.8-23.6L165.9,86.7
		c-2.5-4.2-5.5-8.2-9.1-11.8C134.2,52.4,97.6,52.4,75,75c-22.6,22.6-22.6,59.3,0,81.9C78.6,160.5,82.5,163.5,86.7,165.9z"/>
	<path class="st4" d="M425.3,346.1l-113.7-60.9c-7.4-4.5-17.2-3.6-23.5,2.8c-6.4,6.4-7.3,16.1-2.8,23.6l60.9,113.7
		c2.5,4.2,5.5,8.2,9.1,11.8c22.6,22.6,59.3,22.6,81.9,0c22.6-22.6,22.6-59.3,0-81.9C433.4,351.5,429.5,348.5,425.3,346.1z"/>
	<path class="st5" d="M196,274.7c8.4-2.1,14.6-9.6,14.6-18.6c0-9-6.2-16.6-14.6-18.7L72.6,200c-4.7-1.2-9.6-1.9-14.7-1.9
		C25.9,198.1,0,224,0,256s25.9,57.9,57.9,57.9c5.1,0,10-0.7,14.7-1.9L196,274.7z"/>
	<path class="st6" d="M454.1,198.1c-5.1,0-10,0.7-14.7,1.9L316,237.3c-8.4,2.1-14.6,9.6-14.6,18.7c0,9,6.2,16.6,14.6,18.6L439.4,312
		c4.7,1.2,9.6,1.9,14.7,1.9c32,0,57.9-25.9,57.9-57.9C512,224,486.1,198.1,454.1,198.1z"/>
	<path class="st7" d="M224,288c-6.4-6.4-16.1-7.3-23.6-2.8L86.7,346.1c-4.2,2.5-8.2,5.5-11.8,9.1c-22.6,22.6-22.6,59.3,0,81.9
		c22.6,22.6,59.3,22.6,81.9,0c3.6-3.6,6.6-7.6,9.1-11.8l60.9-113.7C231.3,304.2,230.3,294.4,224,288z"/>
	<path class="st8" d="M288,224c6.4,6.4,16.1,7.3,23.5,2.8l113.7-60.9c4.2-2.5,8.2-5.5,11.8-9.1c22.6-22.6,22.6-59.3,0-81.9
		c-22.6-22.6-59.3-22.6-81.9,0c-3.6,3.6-6.6,7.6-9.1,11.8l-60.9,113.7C280.7,207.8,281.7,217.6,288,224z"/>
</g>
</svg>
